<svg xmlns="http://www.w3.org/2000/svg" width="326" height="291" viewBox="0 0 326 291" fill="none">
<path d="M2.47203 238.769L5.8653 242.139L6.56994 241.43L9.96321 244.799L9.25857 245.509L12.6518 248.879L13.3565 248.169L16.7498 251.539L16.0451 252.248L19.4384 255.618L20.143 254.908L23.5363 258.278L22.8317 258.988L26.2249 262.357L26.9296 261.648L30.3228 265.018L29.6182 265.727L33.0115 269.097L33.7161 268.387L37.1094 271.757L36.4048 272.467L39.798 275.836L40.5027 275.127L43.8959 278.496L43.1913 279.206L46.5846 282.576L47.2892 281.866L50.6825 285.236L49.9778 285.945L53.3711 289.315L54.0758 288.606L55.4799 290H57.6075V291H62.6871V290H67.7667V291H72.8462V290H77.9258V291H83.0053V290H88.0849V291H93.1645V290H98.244V291H103.324V290H108.403V291H113.483V290H118.562V291H123.642V290H128.721V291H133.801V290H136.341H138.684V291H143.371V290H148.058V291H152.745V290H157.431V291H162.118V290H166.805V291H171.492V290H176.179V291H180.866V290H185.552V291H190.239V290H192.583H195.048V291H199.98V290H204.911V291H209.842V290H214.773V291H219.705V290H224.636V291H229.567V290H234.499V291H239.43V290H244.361V291H249.292V290H254.224V291H259.155V290H264.086V291H269.017V290H271.071L272.475 288.606L273.18 289.315L276.573 285.945L275.868 285.236L279.262 281.866L279.966 282.576L283.36 279.206L282.655 278.496L286.048 275.127L286.753 275.836L290.146 272.467L289.441 271.757L292.835 268.387L293.539 269.097L296.933 265.727L296.228 265.018L299.621 261.648L300.326 262.357L303.719 258.988L303.014 258.278L306.408 254.908L307.112 255.618L310.506 252.248L309.801 251.539L313.194 248.169L313.899 248.879L317.292 245.509L316.588 244.799L319.981 241.43L320.685 242.139L324.079 238.769L323.374 238.06L324.775 236.668V234.615H325.775V229.676H324.775V224.736H325.775V219.797H324.775V214.858H325.775V209.919H324.775V204.979H325.775V200.04H324.775V195.101H325.775V190.162H324.775V185.222H325.775V180.283H324.775V175.344H325.775V170.405H324.775V165.465H325.775V160.526H324.775V155.587H325.775V150.647H324.775V145.708H325.775V140.769H324.775V135.83H325.775V130.89H324.775V125.951H325.775V121.012H324.775V116.073H325.775V111.133H324.775V106.194H325.775V101.255H324.775V96.3156H325.775V91.3763H324.775V86.4371H325.775V81.4978H324.775V76.5586H325.775V71.6193H324.775V66.6801H325.775V61.7408H324.775V56.8016H325.775V51.8623H324.775V46.923H325.775V41.9838H324.775V37.0445H325.775V32.1053H324.775V27.166H325.775V22.2268H324.775V17.2875H325.775V12.3483H324.775V7.40901H325.775V2.46976H324.775V1H323.313V0H318.389V1H313.465V0H308.541V1H303.616V0H298.692V1H293.768V0H288.844V1H283.919V0H278.995V1H274.071V0H269.147V1H264.222V0H259.298V1H254.374V0H249.45V1H244.525V0H239.601V1H234.677V0H229.753V1H224.828V0H219.904V1H214.98V0H210.056V1H205.131V0H200.207V1H195.283V0H190.359V1H185.435V0H180.51V1H175.586V0H170.662V1H165.738V0H160.813V1H155.889V0H150.965V1H146.041V0H141.116V1H136.192V0H131.268V1H126.344V0H121.419V1H116.495V0H111.571V1H106.647V0H101.722V1H96.7982V0H91.8739V1H86.9497V0H82.0255V1H77.1012V0H72.177V1H67.2528V0H62.3285V1H57.4042V0H52.48V1H47.5557V0H42.6315V1H37.7072V0H32.783V1H27.8587V0H22.9344V1H18.0102V0H13.0859V1H8.16169V0H3.23743V1H1.77539V2.46963H0.775391V7.40889H1.77539V12.3482H0.775391V17.2874H1.77539V22.2267H0.775391V27.1659H1.77539V32.1052H0.775391V37.0445H1.77539V41.9837H0.775391V46.923H1.77539V51.8623H0.775391V56.8015H1.77539V61.7408H0.775391V66.68H1.77539V71.6193H0.775391V76.5586H1.77539V81.4978H0.775391V86.4371H1.77539V91.3764H0.775391V96.3156H1.77539V101.255H0.775391V106.194H1.77539V111.133H0.775391V116.073H1.77539V121.012H0.775391V125.951H1.77539V130.89H0.775391V135.83H1.77539V140.769H0.775391V145.708H1.77539V150.647H0.775391V155.587H1.77539V160.526H0.775391V165.465H1.77539V170.404H0.775391V175.344H1.77539V180.283H0.775391V185.222H1.77539V190.161H0.775391V195.101H1.77539V200.04H0.775391V204.979H1.77539V209.919H0.775391V214.858H1.77539V219.797H0.775391V224.736H1.77539V229.676H0.775391V234.615H1.77539V236.668L3.17667 238.06L2.47203 238.769Z" stroke="#FB3E44" stroke-width="2" stroke-dasharray="5 5"/>
</svg>